<?xml version="1.0" encoding="UTF-8" standalone="no"?>
<!-- Created with Inkscape (http://www.inkscape.org/) -->

<svg
   width="297mm"
   height="297mm"
   viewBox="0 0 297 297"
   version="1.1"
   id="svg5"
   xml:space="preserve"
   inkscape:version="1.2.2 (732a01da63, 2022-12-09)"
   sodipodi:docname="DHicon.svg"
   xmlns:inkscape="http://www.inkscape.org/namespaces/inkscape"
   xmlns:sodipodi="http://sodipodi.sourceforge.net/DTD/sodipodi-0.dtd"
   xmlns="http://www.w3.org/2000/svg"
   xmlns:svg="http://www.w3.org/2000/svg"><sodipodi:namedview
     id="namedview7"
     pagecolor="#505050"
     bordercolor="#ffffff"
     borderopacity="1"
     inkscape:showpageshadow="0"
     inkscape:pageopacity="0"
     inkscape:pagecheckerboard="1"
     inkscape:deskcolor="#505050"
     inkscape:document-units="mm"
     showgrid="false"
     inkscape:zoom="0.55244701"
     inkscape:cx="399.1333"
     inkscape:cy="508.64607"
     inkscape:window-width="1920"
     inkscape:window-height="1057"
     inkscape:window-x="-8"
     inkscape:window-y="-8"
     inkscape:window-maximized="1"
     inkscape:current-layer="layer1" /><defs
     id="defs2"><inkscape:path-effect
       effect="fillet_chamfer"
       id="path-effect37849"
       is_visible="true"
       lpeversion="1"
       nodesatellites_param="F,0,0,1,0,53.975,0,4 @ F,0,0,1,0,53.975,0,4 @ F,0,0,1,0,53.975,0,4 @ F,0,0,1,0,53.975,0,4"
       unit="px"
       method="auto"
       mode="F"
       radius="204"
       chamfer_steps="4"
       flexible="false"
       use_knot_distance="true"
       apply_no_radius="true"
       apply_with_radius="true"
       only_selected="false"
       hide_knots="false" /></defs><g
     inkscape:label="Layer 1"
     inkscape:groupmode="layer"
     id="layer1"><path
       id="rect35608"
       style="fill:#21222b;stroke-width:8.04;paint-order:stroke fill markers"
       d="m 53.975,0 h 189.05 A 53.975,53.975 45 0 1 297,53.975 v 189.05 A 53.975,53.975 135 0 1 243.025,297 H 53.975 A 53.975,53.975 45 0 1 0,243.025 V 53.975 A 53.975,53.975 135 0 1 53.975,0 Z"
       inkscape:path-effect="#path-effect37849"
       inkscape:original-d="M 0,0 H 297 V 297 H 0 Z" /><path
       id="path354"
       style="fill:#ffffff;stroke-width:0.354829;stroke-opacity:0.582121"
       d="m 127.48146,149.36209 c -0.16074,66.68748 4.61178,139.33457 -20.76328,123.26159 -10.248169,-6.49136 -22.31317,-56.2911 -22.31317,-124.2873 0,-83.049387 11.472848,-118.426444 22.31315,-124.287293 25.58687,-13.833646 20.05124,48.52572 20.7633,125.313003 l -19.90312,10.5866 z"
       sodipodi:nodetypes="csssccc" /><path
       id="path354-5"
       style="fill:#ffffff;stroke-width:0.183989;stroke-opacity:0.582121"
       d="m 196.42201,148.9555 c 0.0818,35.23593 -2.34678,73.62075 10.56573,65.1282 5.21494,-3.42986 11.35441,-29.74274 11.35441,-65.67016 0,-43.88111 -5.83814,-62.57343 -11.3544,-65.670149 -13.02029,-7.309337 -10.20341,25.639729 -10.56574,66.212109 l 10.12802,5.59368 z"
       sodipodi:nodetypes="csssccc" /><path
       id="path354-8"
       style="fill:#ffffff;stroke-width:0.144671;stroke-opacity:0.582121"
       d="m 147.01539,102.04107 c -9.89453,-0.0921 -11.20874,-18.431299 -11.20874,-39.960484 0,-26.295376 2.96158,-39.964196 12.22148,-39.964196 12.01255,0 12.34659,79.92229 -1.01274,79.92468 z"
       sodipodi:nodetypes="cscc" /><path
       id="path354-8-2"
       style="fill:#ffffff;stroke-width:0.140173;stroke-opacity:0.582121"
       d="m 146.97908,272.19359 c -9.28881,-0.0921 -10.52257,-18.4313 -10.52257,-39.96049 0,-26.29538 2.78028,-39.96419 11.47332,-39.96419 11.27718,0 11.59077,79.92228 -0.95075,79.92468 z"
       sodipodi:nodetypes="cscc" /><path
       id="path354-8-4"
       style="fill:#ffffff;stroke-width:0.155212;stroke-opacity:0.582121"
       d="m 176.96771,126.89322 c -10.47234,-0.10016 -11.8633,-20.0443 -11.8633,-43.457608 0,-28.5966 3.13453,-43.461637 12.93518,-43.461637 12.71404,0 13.06759,86.916645 -1.07188,86.919245 z"
       sodipodi:nodetypes="cscc" /><path
       id="path354-8-5"
       style="fill:#ffffff;stroke-width:0.153024;stroke-opacity:0.582121"
       d="m 176.96771,249.32429 c -10.47234,-0.0974 -11.8633,-19.48327 -11.8633,-42.24121 0,-27.79619 3.13453,-42.24514 12.93518,-42.24514 12.71404,0 13.06759,84.48381 -1.07188,84.48635 z"
       sodipodi:nodetypes="cscc" /></g></svg>
