<?xml version="1.0" encoding="UTF-8" standalone="no"?>
<!-- Created with Inkscape (http://www.inkscape.org/) -->

<svg
   width="210mm"
   height="297mm"
   viewBox="0 0 210 297"
   version="1.1"
   id="svg5"
   xml:space="preserve"
   inkscape:version="1.2.2 (732a01da63, 2022-12-09)"
   sodipodi:docname="DHicon.svg"
   xmlns:inkscape="http://www.inkscape.org/namespaces/inkscape"
   xmlns:sodipodi="http://sodipodi.sourceforge.net/DTD/sodipodi-0.dtd"
   xmlns="http://www.w3.org/2000/svg"
   xmlns:svg="http://www.w3.org/2000/svg"><sodipodi:namedview
     id="namedview7"
     pagecolor="#505050"
     bordercolor="#ffffff"
     borderopacity="1"
     inkscape:showpageshadow="0"
     inkscape:pageopacity="0"
     inkscape:pagecheckerboard="1"
     inkscape:deskcolor="#505050"
     inkscape:document-units="mm"
     showgrid="false"
     inkscape:zoom="0.55244701"
     inkscape:cx="239.84201"
     inkscape:cy="591.91197"
     inkscape:window-width="1920"
     inkscape:window-height="1057"
     inkscape:window-x="-8"
     inkscape:window-y="-8"
     inkscape:window-maximized="1"
     inkscape:current-layer="layer1" /><defs
     id="defs2" /><g
     inkscape:label="Layer 1"
     inkscape:groupmode="layer"
     id="layer1"><path
       id="path354"
       style="stroke-width:0.395133;stroke-opacity:0.582121;fill:#ffffff"
       d="m 81.607841,154.94643 c -0.178999,74.26234 5.135615,155.16122 -23.121723,137.26255 -11.412234,-7.2287 -24.847667,-62.68506 -24.847667,-138.40477 0,-92.482753 12.776019,-131.878197 24.847637,-138.404765 28.493225,-15.40497367 22.328815,54.03763 23.121753,139.546985 l -22.163864,11.7891 z"
       sodipodi:nodetypes="csssccc" /><path
       id="path354-5"
       style="stroke-width:0.204888;stroke-opacity:0.582121;fill:#ffffff"
       d="m 158.37917,154.49366 c 0.0911,39.23828 -2.61334,81.98313 11.76586,72.52594 5.80729,-3.81945 12.64413,-33.12114 12.64413,-73.12946 0,-48.86546 -6.50128,-69.68099 -12.64412,-73.129458 -14.49923,-8.139585 -11.36238,28.552078 -11.76587,73.732978 l 11.27843,6.22905 z"
       sodipodi:nodetypes="csssccc" /><path
       id="path354-8"
       style="stroke-width:0.161104;stroke-opacity:0.582121;fill:#ffffff"
       d="M 103.36058,102.25034 C 92.34216,102.14777 90.878675,81.725472 90.878675,57.750843 c 0,-29.282199 3.297978,-44.503625 13.609685,-44.503625 13.37702,0 13.749,89.000452 -1.12778,89.003122 z"
       sodipodi:nodetypes="cscc" /><path
       id="path354-8-2"
       style="stroke-width:0.156095;stroke-opacity:0.582121;fill:#ffffff"
       d="m 103.32015,291.73004 c -10.34391,-0.10257 -11.717805,-20.52487 -11.717805,-44.4995 0,-29.2822 3.096086,-44.50362 12.776545,-44.50362 12.55812,0 12.90733,89.00045 -1.05874,89.00312 z"
       sodipodi:nodetypes="cscc" /><path
       id="path354-8-4"
       style="stroke-width:0.172842;stroke-opacity:0.582121;fill:#ffffff"
       d="m 136.71511,129.92538 c -11.66187,-0.11154 -13.21082,-22.32109 -13.21082,-48.393849 0,-31.844814 3.49057,-48.398331 14.40445,-48.398331 14.15819,0 14.5519,96.78928 -1.19363,96.79218 z"
       sodipodi:nodetypes="cscc" /><path
       id="path354-8-5"
       style="stroke-width:0.170406;stroke-opacity:0.582121;fill:#ffffff"
       d="m 136.71511,266.26307 c -11.66187,-0.10842 -13.21082,-21.69632 -13.21082,-47.03928 0,-30.95348 3.49057,-47.04365 14.40445,-47.04365 14.15819,0 14.5519,94.08011 -1.19363,94.08293 z"
       sodipodi:nodetypes="cscc" /></g></svg>
